<?xml version="1.0" encoding="UTF-8" standalone="no"?> <svg width="64" height="64" viewBox="0 0 64 64" fill="none" xmlns="http://www.w3.org/2000/svg">
<path d="M55 49C54.922 49.0031 54.8442 49.0108 54.767 49.023L52.8 46.4C52.7069 46.2758 52.5861 46.175 52.4472 46.1056C52.3084 46.0361 52.1552 46 52 46H45.363L45.81 41.09C45.8208 40.9523 45.8033 40.8138 45.7586 40.6831C45.7138 40.5524 45.6429 40.4323 45.55 40.33C45.4565 40.2264 45.3424 40.1435 45.2149 40.0867C45.0875 40.0299 44.9495 40.0003 44.81 40H43V33.618L44.9 32.668C45.2686 32.9157 45.7087 33.0346 46.1518 33.0063C46.595 32.978 47.0164 32.804 47.3504 32.5114C47.6845 32.2188 47.9124 31.824 47.9989 31.3885C48.0853 30.9529 48.0254 30.501 47.8284 30.103C47.6314 29.705 47.3084 29.3833 46.9096 29.1879C46.5109 28.9925 46.0587 28.9343 45.6235 29.0225C45.1883 29.1107 44.7944 29.3402 44.5031 29.6754C44.2119 30.0107 44.0396 30.4327 44.013 30.876L41.553 32.1C41.386 32.1834 41.2457 32.312 41.148 32.471C41.0502 32.6301 40.999 32.8133 41 33V40H23V31C23.0001 30.8142 22.9484 30.632 22.8507 30.4739C22.753 30.3158 22.6132 30.1881 22.447 30.105L19.987 28.876C19.9582 28.4385 19.7859 28.0228 19.4968 27.6932C19.2078 27.3635 18.8181 27.1384 18.3882 27.0527C17.9582 26.9669 17.512 27.0253 17.1186 27.2188C16.7252 27.4123 16.4066 27.7301 16.2122 28.1231C16.0177 28.516 15.9582 28.962 16.0429 29.3922C16.1276 29.8223 16.3517 30.2125 16.6806 30.5024C17.0095 30.7923 17.4249 30.9656 17.8622 30.9955C18.2996 31.0254 18.7347 30.9103 19.1 30.668L21 31.618V40H19.19C19.0505 40.0003 18.9125 40.0299 18.7851 40.0867C18.6576 40.1435 18.5435 40.2264 18.45 40.33C18.3571 40.4323 18.2862 40.5524 18.2415 40.6831C18.1967 40.8138 18.1792 40.9523 18.19 41.09L18.637 46H12C11.8448 46 11.6916 46.0361 11.5528 46.1056C11.4139 46.175 11.2932 46.2758 11.2 46.4L9.23301 49.023C8.79868 48.9744 8.36045 49.0703 7.98611 49.2958C7.61176 49.5213 7.32216 49.8639 7.1621 50.2706C7.00205 50.6773 6.98046 51.1254 7.10068 51.5455C7.2209 51.9657 7.47622 52.3345 7.82715 52.595C8.17809 52.8555 8.60507 52.9931 9.04205 52.9864C9.47903 52.9798 9.90166 52.8294 10.2446 52.5584C10.5875 52.2875 10.8315 51.9111 10.939 51.4875C11.0464 51.0639 11.0113 50.6166 10.839 50.215L12.5 48H18.82L19.83 59.09C19.8525 59.3393 19.9678 59.5711 20.1529 59.7396C20.3381 59.9081 20.5797 60.001 20.83 60H27V53.56L25.45 52.61C25.0082 52.8623 24.5088 52.9966 24 53C23.4067 53 22.8266 52.824 22.3333 52.4944C21.8399 52.1648 21.4554 51.6962 21.2284 51.148C21.0013 50.5999 20.9419 49.9967 21.0576 49.4147C21.1734 48.8328 21.4591 48.2982 21.8787 47.8787C22.2982 47.4591 22.8328 47.1734 23.4147 47.0576C23.9967 46.9419 24.5999 47.0013 25.1481 47.2284C25.6962 47.4554 26.1648 47.8399 26.4944 48.3333C26.8241 48.8266 27 49.4066 27 50C26.9979 50.3699 26.9267 50.7362 26.79 51.08L28.52 52.15C28.6669 52.2378 28.7884 52.3624 28.8726 52.5114C28.9567 52.6605 29.0007 52.8288 29 53V60H31V47.82C30.3328 47.5841 29.7705 47.1199 29.4124 46.5095C29.0543 45.8991 28.9235 45.1818 29.0432 44.4843C29.1629 43.7868 29.5253 43.154 30.0663 42.6979C30.6074 42.2417 31.2923 41.9916 32 41.9916C32.7077 41.9916 33.3926 42.2417 33.9337 42.6979C34.4747 43.154 34.8371 43.7868 34.9568 44.4843C35.0765 45.1818 34.9457 45.8991 34.5876 46.5095C34.2296 47.1199 33.6672 47.5841 33 47.82V60H35V55C34.9994 54.8288 35.0433 54.6605 35.1274 54.5114C35.2116 54.3624 35.3331 54.2378 35.48 54.15L37.21 53.08C37.0733 52.7362 37.0021 52.3699 37 52C37 51.4066 37.176 50.8266 37.5056 50.3333C37.8352 49.8399 38.3038 49.4554 38.852 49.2284C39.4001 49.0013 40.0033 48.9419 40.5853 49.0576C41.1672 49.1734 41.7018 49.4591 42.1213 49.8787C42.5409 50.2982 42.8266 50.8328 42.9424 51.4147C43.0581 51.9967 42.9987 52.5999 42.7716 53.148C42.5446 53.6962 42.1601 54.1648 41.6667 54.4944C41.1734 54.824 40.5933 55 40 55C39.4912 54.9966 38.9918 54.8623 38.55 54.61L37 55.56V60H43.17C43.4203 60.001 43.662 59.9081 43.8471 59.7396C44.0323 59.5711 44.1475 59.3393 44.17 59.09L45.18 48H51.5L53.161 50.215C52.9922 50.6105 52.9554 51.0498 53.056 51.4679C53.1566 51.886 53.3893 52.2605 53.7195 52.5359C54.0497 52.8113 54.4599 52.973 54.8893 52.9969C55.3186 53.0208 55.7442 52.9057 56.103 52.6687C56.4618 52.4317 56.7346 52.0853 56.881 51.681C57.0274 51.2767 57.0396 50.836 56.9158 50.4242C56.792 50.0124 56.5388 49.6514 56.1937 49.3949C55.8486 49.1384 55.43 48.9999 55 49V49Z" fill="black"/>
<path d="M49 14C48.7348 14 48.4804 14.1054 48.2929 14.2929C48.1054 14.4804 48 14.7348 48 15C48 15.2652 48.1054 15.5196 48.2929 15.7071C48.4804 15.8946 48.7348 16 49 16C51.9163 16.0034 54.7122 17.1635 56.7744 19.2256C58.8365 21.2878 59.9966 24.0837 60 27C60 27.2652 60.1054 27.5196 60.2929 27.7071C60.4804 27.8946 60.7348 28 61 28C61.2652 28 61.5196 27.8946 61.7071 27.7071C61.8946 27.5196 62 27.2652 62 27C61.996 23.5534 60.6251 20.2491 58.188 17.812C55.7509 15.3749 52.4466 14.004 49 14V14Z" fill="black"/>
<path d="M52 27C52 27.2652 52.1054 27.5196 52.2929 27.7071C52.4804 27.8946 52.7348 28 53 28C53.2652 28 53.5196 27.8946 53.7071 27.7071C53.8946 27.5196 54 27.2652 54 27C53.9984 25.6744 53.4711 24.4036 52.5338 23.4662C51.5964 22.5289 50.3256 22.0016 49 22C48.7348 22 48.4804 22.1054 48.2929 22.2929C48.1054 22.4804 48 22.7348 48 23C48 23.2652 48.1054 23.5196 48.2929 23.7071C48.4804 23.8946 48.7348 24 49 24C49.7956 24 50.5587 24.3161 51.1213 24.8787C51.6839 25.4413 52 26.2044 52 27Z" fill="black"/>
<path d="M49 18C48.7348 18 48.4804 18.1054 48.2929 18.2929C48.1054 18.4804 48 18.7348 48 19C48 19.2652 48.1054 19.5196 48.2929 19.7071C48.4804 19.8946 48.7348 20 49 20C50.8559 20.0021 52.6351 20.7403 53.9474 22.0526C55.2597 23.3649 55.9979 25.1441 56 27C56 27.2652 56.1054 27.5196 56.2929 27.7071C56.4804 27.8946 56.7348 28 57 28C57.2652 28 57.5196 27.8946 57.7071 27.7071C57.8946 27.5196 58 27.2652 58 27C57.9971 24.6139 57.0479 22.3265 55.3607 20.6393C53.6735 18.9521 51.3861 18.0029 49 18V18Z" fill="black"/>
<path d="M37 32H33V34H37V32Z" fill="black"/>
<path d="M24 51C24.5523 51 25 50.5523 25 50C25 49.4477 24.5523 49 24 49C23.4477 49 23 49.4477 23 50C23 50.5523 23.4477 51 24 51Z" fill="black"/>
<path d="M30.93 4.67999L27 6.61999V38H31L30.93 4.67999Z" fill="black"/>
<path d="M32 46C32.5523 46 33 45.5523 33 45C33 44.4477 32.5523 44 32 44C31.4477 44 31 44.4477 31 45C31 45.5523 31.4477 46 32 46Z" fill="black"/>
<path d="M40 53C40.5523 53 41 52.5523 41 52C41 51.4477 40.5523 51 40 51C39.4477 51 39 51.4477 39 52C39 52.5523 39.4477 53 40 53Z" fill="black"/>
<path d="M33 38H37V36H32.99L33 38Z" fill="black"/>
<path d="M37 22H32.96L32.98 30H37V22Z" fill="black"/>
<path d="M37 10H33V12H37V10Z" fill="black"/>
<path d="M36.45 8L32.93 5.03L32.94 8H36.45Z" fill="black"/>
<path d="M37 14H33V16H37V14Z" fill="black"/>
<path d="M37 18H33V20H37V18Z" fill="black"/>
</svg>
